<?xml version="1.0" encoding="utf-8"?>
<!-- Generator: Adobe Illustrator 12.0.0, SVG Export Plug-In . SVG Version: 6.00 Build 51448)  -->
<!DOCTYPE svg PUBLIC "-//W3C//DTD SVG 1.1//EN" "http://www.w3.org/Graphics/SVG/1.1/DTD/svg11.dtd" [
	<!ENTITY ns_svg "http://www.w3.org/2000/svg">
	<!ENTITY ns_xlink "http://www.w3.org/1999/xlink">
]>
<svg  version="1.1" id="Layer_1" xmlns="&ns_svg;" xmlns:xlink="&ns_xlink;" width="474.072" height="64.466"
	 viewBox="0 0 474.072 64.466" overflow="visible" enable-background="new 0 0 474.072 64.466" xml:space="preserve">
<text transform="matrix(1 0 0 1 21.6201 59.3359)" fill="#4487B3" font-family="'Rockwell-ExtraBold'" font-size="19" letter-spacing="1">NORTH SHORE WATER COMMISSION</text>
<g>
	<path fill="#FFFFFF" stroke="#4487B3" stroke-width="2" d="M20.385,0.721c5.545,5.545,14.52,5.544,20.065,0"/>
	<path fill="#FFFFFF" stroke="#4487B3" stroke-width="2" d="M0.707,0.718c5.546,5.545,14.52,5.544,20.066-0.001"/>
	<path fill="#FFFFFF" stroke="#4487B3" stroke-width="2" d="M40.063,0.738c5.546,5.545,14.52,5.544,20.065,0"/>
	<path fill="#FFFFFF" stroke="#4487B3" stroke-width="2" d="M59.741,0.735C65.287,6.28,74.261,6.28,79.807,0.734"/>
	<path fill="#FFFFFF" stroke="#4487B3" stroke-width="2" d="M79.419,0.71c5.546,5.545,14.52,5.545,20.065,0"/>
	<path fill="#FFFFFF" stroke="#4487B3" stroke-width="2" d="M99.097,0.707c5.546,5.545,14.52,5.545,20.066,0"/>
	<path fill="#FFFFFF" stroke="#4487B3" stroke-width="2" d="M118.775,0.727c5.546,5.545,14.52,5.545,20.066,0"/>
	<path fill="#FFFFFF" stroke="#4487B3" stroke-width="2" d="M138.453,0.724c5.547,5.545,14.52,5.545,20.066,0"/>
	<path fill="#FFFFFF" stroke="#4487B3" stroke-width="2" d="M158.131,0.772c5.546,5.545,14.519,5.545,20.065-0.001"/>
	<path fill="#FFFFFF" stroke="#4487B3" stroke-width="2" d="M177.809,0.77c5.546,5.546,14.521,5.545,20.065,0"/>
	<path fill="#FFFFFF" stroke="#4487B3" stroke-width="2" d="M197.486,0.79c5.546,5.545,14.519,5.545,20.066-0.001"/>
	<path fill="#FFFFFF" stroke="#4487B3" stroke-width="2" d="M217.165,0.787c5.546,5.546,14.521,5.545,20.066,0"/>
	<path fill="#FFFFFF" stroke="#4487B3" stroke-width="2" d="M236.843,0.761c5.545,5.546,14.521,5.545,20.066,0"/>
	<path fill="#FFFFFF" stroke="#4487B3" stroke-width="2" d="M256.521,0.759c5.546,5.546,14.52,5.545,20.066,0"/>
	<path fill="#FFFFFF" stroke="#4487B3" stroke-width="2" d="M276.198,0.778c5.547,5.546,14.521,5.545,20.065,0"/>
	<path fill="#FFFFFF" stroke="#4487B3" stroke-width="2" d="M295.876,0.776c5.544,5.546,14.519,5.546,20.065,0"/>
	<path fill="#FFFFFF" stroke="#4487B3" stroke-width="2" d="M315.555,0.918c5.547,5.545,14.52,5.545,20.064,0"/>
	<path fill="#FFFFFF" stroke="#4487B3" stroke-width="2" d="M335.232,0.916c5.545,5.544,14.52,5.544,20.065-0.001"/>
	<path fill="#FFFFFF" stroke="#4487B3" stroke-width="2" d="M354.91,0.935c5.547,5.545,14.52,5.545,20.066,0"/>
	<path fill="#FFFFFF" stroke="#4487B3" stroke-width="2" d="M374.588,0.933c5.546,5.545,14.52,5.545,20.066-0.001"/>
	<path fill="#FFFFFF" stroke="#4487B3" stroke-width="2" d="M394.266,0.908c5.548,5.544,14.522,5.544,20.067-0.001"/>
	<path fill="#FFFFFF" stroke="#4487B3" stroke-width="2" d="M413.944,0.905c5.546,5.545,14.519,5.544,20.065,0"/>
	<path fill="#FFFFFF" stroke="#4487B3" stroke-width="2" d="M433.622,0.925c5.547,5.544,14.521,5.544,20.066-0.001"/>
	<path fill="#FFFFFF" stroke="#4487B3" stroke-width="2" d="M453.3,0.922c5.545,5.545,14.52,5.544,20.065,0"/>
</g>
<g>
	<path fill="#FFFFFF" stroke="#4487B3" stroke-width="2" d="M20.385,14.221c5.545,5.545,14.52,5.544,20.065,0"/>
	<path fill="#FFFFFF" stroke="#4487B3" stroke-width="2" d="M0.707,14.218c5.546,5.545,14.52,5.544,20.066,0"/>
	<path fill="#FFFFFF" stroke="#4487B3" stroke-width="2" d="M40.063,14.238c5.546,5.544,14.52,5.543,20.065,0"/>
	<path fill="#FFFFFF" stroke="#4487B3" stroke-width="2" d="M59.741,14.236c5.546,5.544,14.521,5.543,20.066-0.001"/>
	<path fill="#FFFFFF" stroke="#4487B3" stroke-width="2" d="M79.419,14.21c5.546,5.545,14.52,5.545,20.065-0.001"/>
	<path fill="#FFFFFF" stroke="#4487B3" stroke-width="2" d="M99.097,14.207c5.546,5.546,14.52,5.546,20.066,0"/>
	<path fill="#FFFFFF" stroke="#4487B3" stroke-width="2" d="M118.775,14.227c5.546,5.546,14.52,5.546,20.066,0"/>
	<path fill="#FFFFFF" stroke="#4487B3" stroke-width="2" d="M138.453,14.224c5.547,5.546,14.52,5.546,20.066,0"/>
	<path fill="#FFFFFF" stroke="#4487B3" stroke-width="2" d="M158.131,14.273c5.546,5.545,14.519,5.545,20.065-0.001"/>
	<path fill="#FFFFFF" stroke="#4487B3" stroke-width="2" d="M177.809,14.27c5.546,5.547,14.521,5.545,20.065,0"/>
	<path fill="#FFFFFF" stroke="#4487B3" stroke-width="2" d="M197.486,14.291c5.546,5.544,14.519,5.544,20.066-0.001"/>
	<path fill="#FFFFFF" stroke="#4487B3" stroke-width="2" d="M217.165,14.286c5.546,5.547,14.521,5.545,20.066,0"/>
	<path fill="#FFFFFF" stroke="#4487B3" stroke-width="2" d="M236.843,14.261c5.545,5.546,14.521,5.545,20.066,0"/>
	<path fill="#FFFFFF" stroke="#4487B3" stroke-width="2" d="M256.521,14.259c5.546,5.546,14.52,5.545,20.066,0"/>
	<path fill="#FFFFFF" stroke="#4487B3" stroke-width="2" d="M276.198,14.279c5.547,5.546,14.521,5.545,20.065,0"/>
	<path fill="#FFFFFF" stroke="#4487B3" stroke-width="2" d="M295.876,14.276c5.544,5.546,14.519,5.546,20.065,0"/>
	<path fill="#FFFFFF" stroke="#4487B3" stroke-width="2" d="M315.555,14.418c5.547,5.544,14.52,5.544,20.064,0"/>
	<path fill="#FFFFFF" stroke="#4487B3" stroke-width="2" d="M335.232,14.417c5.545,5.543,14.52,5.543,20.065-0.001"/>
	<path fill="#FFFFFF" stroke="#4487B3" stroke-width="2" d="M354.91,14.435c5.547,5.545,14.52,5.545,20.066,0"/>
	<path fill="#FFFFFF" stroke="#4487B3" stroke-width="2" d="M374.588,14.433c5.546,5.545,14.52,5.545,20.066-0.001"/>
	<path fill="#FFFFFF" stroke="#4487B3" stroke-width="2" d="M394.266,14.407c5.548,5.545,14.522,5.545,20.067,0"/>
	<path fill="#FFFFFF" stroke="#4487B3" stroke-width="2" d="M413.944,14.405c5.546,5.545,14.519,5.544,20.065,0"/>
	<path fill="#FFFFFF" stroke="#4487B3" stroke-width="2" d="M433.622,14.425c5.547,5.544,14.521,5.544,20.066,0"/>
	<path fill="none" stroke="#4487B3" stroke-width="2" d="M453.3,14.422c5.545,5.544,14.52,5.543,20.065,0"/>
</g>
<g>
	<path fill="#FFFFFF" stroke="#4487B3" stroke-width="2" d="M20.385,27.721c5.545,5.545,14.52,5.545,20.065,0"/>
	<path fill="#FFFFFF" stroke="#4487B3" stroke-width="2" d="M0.707,27.718c5.546,5.544,14.52,5.544,20.066,0"/>
	<path fill="#FFFFFF" stroke="#4487B3" stroke-width="2" d="M40.063,27.738c5.546,5.544,14.52,5.544,20.065,0"/>
	<path fill="#FFFFFF" stroke="#4487B3" stroke-width="2" d="M59.741,27.736c5.546,5.543,14.521,5.543,20.066-0.001"/>
	<path fill="#FFFFFF" stroke="#4487B3" stroke-width="2" d="M79.419,27.71c5.546,5.545,14.52,5.545,20.065-0.001"/>
	<path fill="#FFFFFF" stroke="#4487B3" stroke-width="2" d="M99.097,27.707c5.546,5.546,14.52,5.545,20.066,0"/>
	<path fill="#FFFFFF" stroke="#4487B3" stroke-width="2" d="M118.775,27.727c5.546,5.546,14.52,5.546,20.066,0"/>
	<path fill="#FFFFFF" stroke="#4487B3" stroke-width="2" d="M138.453,27.724c5.547,5.546,14.52,5.545,20.066,0"/>
	<path fill="#FFFFFF" stroke="#4487B3" stroke-width="2" d="M158.131,27.773c5.546,5.545,14.519,5.545,20.065-0.001"/>
	<path fill="#FFFFFF" stroke="#4487B3" stroke-width="2" d="M177.809,27.77c5.546,5.547,14.521,5.546,20.065,0"/>
	<path fill="#FFFFFF" stroke="#4487B3" stroke-width="2" d="M197.486,27.791c5.546,5.544,14.519,5.544,20.066-0.001"/>
	<path fill="#FFFFFF" stroke="#4487B3" stroke-width="2" d="M217.165,27.786c5.546,5.547,14.521,5.546,20.066,0"/>
	<path fill="#FFFFFF" stroke="#4487B3" stroke-width="2" d="M236.843,27.761c5.545,5.545,14.521,5.545,20.066,0"/>
	<path fill="#FFFFFF" stroke="#4487B3" stroke-width="2" d="M256.521,27.759c5.546,5.546,14.52,5.546,20.066,0"/>
	<path fill="#FFFFFF" stroke="#4487B3" stroke-width="2" d="M276.198,27.779c5.547,5.545,14.521,5.545,20.065,0"/>
	<path fill="#FFFFFF" stroke="#4487B3" stroke-width="2" d="M295.876,27.776c5.544,5.546,14.519,5.546,20.065,0"/>
	<path fill="#FFFFFF" stroke="#4487B3" stroke-width="2" d="M315.555,27.918c5.547,5.543,14.52,5.543,20.064,0"/>
	<path fill="#FFFFFF" stroke="#4487B3" stroke-width="2" d="M335.232,27.917c5.545,5.543,14.52,5.543,20.065-0.001"/>
	<path fill="#FFFFFF" stroke="#4487B3" stroke-width="2" d="M354.91,27.935c5.547,5.544,14.52,5.544,20.066,0"/>
	<path fill="#FFFFFF" stroke="#4487B3" stroke-width="2" d="M374.588,27.933c5.546,5.544,14.52,5.544,20.066-0.001"/>
	<path fill="#FFFFFF" stroke="#4487B3" stroke-width="2" d="M394.266,27.907c5.548,5.546,14.522,5.545,20.067,0"/>
	<path fill="#FFFFFF" stroke="#4487B3" stroke-width="2" d="M413.944,27.905c5.546,5.545,14.519,5.544,20.065,0"/>
	<path fill="#FFFFFF" stroke="#4487B3" stroke-width="2" d="M433.622,27.925c5.547,5.545,14.521,5.544,20.066,0"/>
	<path fill="#FFFFFF" stroke="#4487B3" stroke-width="2" d="M453.3,27.922c5.545,5.544,14.52,5.543,20.065,0"/>
</g>
</svg>
